<svg width="8372" height="652" viewBox="0 0 8372 652" fill="none" xmlns="http://www.w3.org/2000/svg">
<g clip-path="url(#clip0_21_130)">
<path d="M17.3361 493V466.05H32.7361C40.0695 466.05 46.4861 464.95 51.9861 462.75C57.4861 460.55 61.7028 456.883 64.6361 451.75C67.5695 446.25 69.0361 438.917 69.0361 429.75V161.9C69.0361 152 67.2028 144.667 63.5361 139.9C60.2361 135.133 55.8361 131.833 50.3361 130C44.8361 128.167 38.7861 127.25 32.1861 127.25H17.3361V100.3H177.936C228.536 100.3 266.669 108 292.336 123.4C318.003 138.8 330.836 163.55 330.836 197.65C330.836 214.15 327.536 228.267 320.936 240C314.336 251.367 305.353 260.717 293.986 268.05C282.986 275.017 270.703 280.517 257.136 284.55V286.75C283.536 291.517 304.986 301.967 321.486 318.1C338.353 333.867 346.786 356.417 346.786 385.75C346.786 421.683 334.136 448.633 308.836 466.6C283.903 484.2 245.769 493 194.436 493H17.3361ZM189.486 461.65C215.886 461.65 235.136 455.783 247.236 444.05C259.703 432.317 265.936 412.333 265.936 384.1C265.936 365.767 263.369 350.733 258.236 339C253.469 326.9 245.586 317.917 234.586 312.05C223.586 306.183 208.919 303.25 190.586 303.25H145.486V461.65H189.486ZM174.636 271.9C193.336 271.9 208.186 269.517 219.186 264.75C230.186 259.617 238.069 251.733 242.836 241.1C247.969 230.467 250.536 216.717 250.536 199.85C250.536 173.817 244.486 156.033 232.386 146.5C220.286 136.6 200.669 131.65 173.536 131.65H145.486V271.9H174.636ZM538.577 498.5C493.844 498.5 459.744 485.3 436.277 458.9C412.81 432.5 401.077 395.283 401.077 347.25C401.077 295.917 412.444 257.233 435.177 231.2C458.277 204.8 490.727 191.6 532.527 191.6C571.027 191.6 601.277 202.783 623.277 225.15C645.277 247.15 656.277 279.967 656.277 323.6V351.1H475.327C476.06 388.867 483.027 416.367 496.227 433.6C509.427 450.833 528.677 459.45 553.977 459.45C572.677 459.45 588.26 455.233 600.727 446.8C613.56 438 623.094 427.733 629.327 416C633.36 417.467 636.844 420.217 639.777 424.25C643.077 427.917 644.727 432.683 644.727 438.55C644.727 447.35 641.06 456.333 633.727 465.5C626.394 474.667 614.844 482.55 599.077 489.15C583.677 495.383 563.51 498.5 538.577 498.5ZM582.027 317.55C582.027 288.95 578.177 266.4 570.477 249.9C563.144 233.4 550.677 225.15 533.077 225.15C515.844 225.15 502.277 233.033 492.377 248.8C482.844 264.567 477.527 287.483 476.427 317.55H582.027ZM697.854 493V466.05H713.804C720.77 466.05 726.82 464.95 731.954 462.75C737.454 460.55 741.67 456.883 744.604 451.75C747.904 446.25 749.554 439.1 749.554 430.3V161.9C749.554 152.367 747.904 145.217 744.604 140.45C741.304 135.317 736.72 131.833 730.854 130C725.354 128.167 719.12 127.25 712.154 127.25H697.854V100.3H875.504C915.104 100.3 949.02 107.633 977.254 122.3C1005.49 136.6 1027.12 158.05 1042.15 186.65C1057.19 214.883 1064.7 249.9 1064.7 291.7C1064.7 331.667 1057.55 366.867 1043.25 397.3C1028.95 427.367 1007.87 450.833 980.004 467.7C952.137 484.567 917.304 493 875.504 493H697.854ZM862.304 461.1C889.07 461.1 911.254 454.317 928.854 440.75C946.454 427.183 959.654 407.933 968.454 383C977.62 357.7 982.204 327.267 982.204 291.7C982.204 256.133 977.62 226.617 968.454 203.15C959.654 179.683 946.454 161.9 928.854 149.8C911.254 137.7 889.254 131.65 862.854 131.65H826.004V461.1H862.304ZM1105.9 493V466.05H1109.75C1117.45 466.05 1124.42 465.133 1130.65 463.3C1137.25 461.467 1142.39 457.8 1146.05 452.3C1150.09 446.8 1152.1 438.55 1152.1 427.55V137.15C1152.1 126.883 1149.9 119.367 1145.5 114.6C1141.1 109.467 1135.79 106.167 1129.55 104.7C1123.32 102.867 1117.09 101.95 1110.85 101.95H1104.8V75H1224.7V178.4C1224.7 186.467 1224.52 194.533 1224.15 202.6C1224.15 210.667 1223.97 218 1223.6 224.6C1223.24 230.833 1222.87 235.233 1222.5 237.8H1225.8C1230.94 228.267 1237.17 220.017 1244.5 213.05C1251.84 206.083 1260.64 200.767 1270.9 197.1C1281.54 193.433 1293.64 191.6 1307.2 191.6C1338.37 191.6 1361.84 200.033 1377.6 216.9C1393.37 233.767 1401.25 260.9 1401.25 298.3V426.45C1401.25 437.817 1402.72 446.433 1405.65 452.3C1408.95 457.8 1413.35 461.467 1418.85 463.3C1424.72 465.133 1431.69 466.05 1439.75 466.05H1441.95V493H1328.1V309.3C1328.1 285.467 1324.44 267.133 1317.1 254.3C1310.14 241.1 1297.49 234.5 1279.15 234.5C1265.95 234.5 1255.32 238.35 1247.25 246.05C1239.55 253.75 1233.87 264.2 1230.2 277.4C1226.9 290.6 1225.25 305.083 1225.25 320.85V429.75C1225.25 440.017 1226.9 447.717 1230.2 452.85C1233.87 457.983 1238.64 461.467 1244.5 463.3C1250.74 465.133 1257.89 466.05 1265.95 466.05H1268.15V493H1105.9ZM1470.13 493V466.05H1472.33C1480.76 466.05 1488.09 465.133 1494.33 463.3C1500.93 461.467 1506.06 457.8 1509.73 452.3C1513.39 446.433 1515.23 437.817 1515.23 426.45V262.55C1515.23 251.55 1513.39 243.483 1509.73 238.35C1506.43 232.85 1501.66 229.367 1495.43 227.9C1489.19 226.067 1482.04 225.15 1473.98 225.15H1472.33V198.2H1573.53L1584.53 251.55H1587.28C1592.41 239.083 1598.28 228.45 1604.88 219.65C1611.48 210.483 1619.54 203.7 1629.08 199.3C1638.98 194.533 1651.63 192.15 1667.03 192.15C1687.56 192.15 1702.59 196.367 1712.13 204.8C1722.03 212.867 1726.98 223.867 1726.98 237.8C1726.98 252.467 1721.66 263.833 1711.03 271.9C1700.39 279.967 1684.63 284 1663.73 284C1663.73 268.967 1661.89 257.783 1658.23 250.45C1654.56 242.75 1647.41 238.9 1636.78 238.9C1627.98 238.9 1620.46 242.383 1614.23 249.35C1607.99 255.95 1603.04 264.75 1599.38 275.75C1595.71 286.383 1592.96 297.75 1591.13 309.85C1589.29 321.95 1588.38 333.317 1588.38 343.95V429.2C1588.38 439.833 1590.03 447.9 1593.33 453.4C1596.99 458.533 1601.94 462.017 1608.18 463.85C1614.41 465.317 1621.19 466.05 1628.53 466.05H1645.58V493H1470.13ZM1882 498.5C1851.2 498.5 1828.1 489.883 1812.7 472.65C1797.67 455.05 1790.15 427.55 1790.15 390.15V263.65C1790.15 253.017 1788.5 244.95 1785.2 239.45C1782.27 233.95 1777.87 230.283 1772 228.45C1766.5 226.25 1759.35 225.15 1750.55 225.15H1748.9V198.2H1863.3V378.6C1863.3 394.367 1864.58 408.117 1867.15 419.85C1870.08 431.217 1874.85 440.017 1881.45 446.25C1888.42 452.483 1897.95 455.6 1910.05 455.6C1923.25 455.6 1934.07 452.117 1942.5 445.15C1950.93 437.817 1956.98 427.917 1960.65 415.45C1964.68 402.617 1966.7 387.583 1966.7 370.35V262C1966.7 251 1965.05 242.933 1961.75 237.8C1958.45 232.667 1953.87 229.367 1948 227.9C1942.13 226.067 1935.35 225.15 1927.65 225.15H1925.45V198.2H2039.85V430.3C2039.85 440.933 2041.5 448.817 2044.8 453.95C2048.47 459.083 2053.23 462.383 2059.1 463.85C2064.97 465.317 2071.75 466.05 2079.45 466.05H2082.75V493H1980.45L1970 452.3H1967.25C1957.35 469.533 1945.25 481.633 1930.95 488.6C1916.65 495.2 1900.33 498.5 1882 498.5ZM2140.62 252.65C2138.06 245.317 2134.94 239.817 2131.27 236.15C2127.97 232.117 2123.76 229.367 2118.62 227.9C2113.86 226.067 2107.44 225.15 2099.37 225.15V198.2H2256.67V225.15H2245.12C2235.22 225.15 2227.89 226.983 2223.12 230.65C2218.72 234.317 2216.52 240 2216.52 247.7C2216.52 251 2216.89 254.483 2217.62 258.15C2218.36 261.45 2219.46 264.933 2220.92 268.6L2257.22 372.55C2260.52 380.617 2263.46 389.05 2266.02 397.85C2268.59 406.283 2270.97 414.35 2273.17 422.05C2275.37 429.75 2277.21 436.717 2278.67 442.95C2280.51 435.617 2283.44 426.267 2287.47 414.9C2291.87 403.167 2295.91 392.35 2299.57 382.45L2337.52 273C2339.36 268.233 2340.64 263.833 2341.37 259.8C2342.11 255.4 2342.47 251.367 2342.47 247.7C2342.47 240.367 2339.91 234.867 2334.77 231.2C2330.01 227.167 2322.31 225.15 2311.67 225.15H2304.52V198.2H2424.42V225.15H2415.07C2408.84 225.15 2403.71 226.25 2399.67 228.45C2395.64 230.65 2391.79 234.867 2388.12 241.1C2384.82 246.967 2381.16 255.4 2377.12 266.4L2295.17 493H2228.07L2140.62 252.65ZM2435.25 493V466.05H2441.85C2449.55 466.05 2456.51 465.133 2462.75 463.3C2468.98 461.1 2473.93 457.25 2477.6 451.75C2481.26 446.25 2483.1 438.183 2483.1 427.55V262.55C2483.1 251.917 2481.08 244.033 2477.05 238.9C2473.38 233.767 2468.43 230.283 2462.2 228.45C2456.33 226.25 2449.55 225.15 2441.85 225.15H2436.9V198.2H2556.25V426.45C2556.25 437.45 2557.9 445.883 2561.2 451.75C2564.86 457.25 2569.81 461.1 2576.05 463.3C2582.65 465.133 2589.61 466.05 2596.95 466.05H2603.55V493H2435.25ZM2517.2 147.05C2505.46 147.05 2495.56 144.117 2487.5 138.25C2479.43 132.017 2475.4 122.3 2475.4 109.1C2475.4 95.5333 2479.43 85.8167 2487.5 79.95C2495.56 74.0833 2505.46 71.15 2517.2 71.15C2528.56 71.15 2538.28 74.0833 2546.35 79.95C2554.78 85.8167 2559 95.5333 2559 109.1C2559 122.3 2554.78 132.017 2546.35 138.25C2538.28 144.117 2528.56 147.05 2517.2 147.05ZM2772.84 498.5C2746.8 498.5 2723.7 493.55 2703.54 483.65C2683.74 473.75 2668.15 457.8 2656.79 435.8C2645.79 413.433 2640.29 383.733 2640.29 346.7C2640.29 307.1 2645.97 276.117 2657.34 253.75C2669.07 231.017 2684.65 215.067 2704.09 205.9C2723.89 196.367 2746.07 191.6 2770.64 191.6C2791.9 191.6 2810.24 193.983 2825.64 198.75C2841.4 203.517 2853.5 210.117 2861.94 218.55C2870.74 226.983 2875.14 237.067 2875.14 248.8C2875.14 256.867 2873.3 264.2 2869.64 270.8C2865.97 277.4 2859.37 282.533 2849.84 286.2C2840.67 289.867 2827.84 291.7 2811.34 291.7C2811.34 279.233 2810.24 267.867 2808.04 257.6C2805.84 246.967 2801.8 238.533 2795.94 232.3C2790.44 226.067 2782.55 222.95 2772.29 222.95C2760.55 222.95 2750.29 226.617 2741.49 233.95C2733.05 241.283 2726.45 253.933 2721.69 271.9C2716.92 289.5 2714.54 314.25 2714.54 346.15C2714.54 371.45 2716.92 392.533 2721.69 409.4C2726.45 425.9 2733.97 438.367 2744.24 446.8C2754.87 454.867 2768.62 458.9 2785.49 458.9C2804.19 458.9 2820.14 454.867 2833.34 446.8C2846.9 438.733 2856.8 428.65 2863.04 416.55C2867.07 419.117 2870 422.6 2871.84 427C2874.04 431.033 2875.14 435.617 2875.14 440.75C2875.14 449.55 2871.47 458.533 2864.14 467.7C2856.8 476.5 2845.62 483.833 2830.59 489.7C2815.55 495.567 2796.3 498.5 2772.84 498.5ZM2906.29 493V466.05H2912.89C2920.59 466.05 2927.56 465.133 2933.79 463.3C2940.03 461.1 2944.98 457.25 2948.64 451.75C2952.31 446.25 2954.14 438.183 2954.14 427.55V262.55C2954.14 251.917 2952.13 244.033 2948.09 238.9C2944.43 233.767 2939.48 230.283 2933.24 228.45C2927.38 226.25 2920.59 225.15 2912.89 225.15H2907.94V198.2H3027.29V426.45C3027.29 437.45 3028.94 445.883 3032.24 451.75C3035.91 457.25 3040.86 461.1 3047.09 463.3C3053.69 465.133 3060.66 466.05 3067.99 466.05H3074.59V493H2906.29ZM2988.24 147.05C2976.51 147.05 2966.61 144.117 2958.54 138.25C2950.48 132.017 2946.44 122.3 2946.44 109.1C2946.44 95.5333 2950.48 85.8167 2958.54 79.95C2966.61 74.0833 2976.51 71.15 2988.24 71.15C2999.61 71.15 3009.33 74.0833 3017.39 79.95C3025.83 85.8167 3030.04 95.5333 3030.04 109.1C3030.04 122.3 3025.83 132.017 3017.39 138.25C3009.33 144.117 2999.61 147.05 2988.24 147.05ZM3248.28 498.5C3205.75 498.5 3172.2 485.85 3147.63 460.55C3123.43 434.883 3111.33 396.2 3111.33 344.5C3111.33 293.167 3122.88 254.85 3145.98 229.55C3169.45 204.25 3204.1 191.6 3249.93 191.6C3292.46 191.6 3325.83 204.25 3350.03 229.55C3374.6 254.85 3386.88 293.167 3386.88 344.5C3386.88 396.2 3375.15 434.883 3351.68 460.55C3328.21 485.85 3293.75 498.5 3248.28 498.5ZM3249.38 466.05C3264.78 466.05 3277.06 461.467 3286.23 452.3C3295.76 443.133 3302.55 429.567 3306.58 411.6C3310.61 393.267 3312.63 370.9 3312.63 344.5C3312.63 304.533 3307.68 274.65 3297.78 254.85C3288.25 234.683 3271.93 224.6 3248.83 224.6C3225.36 224.6 3208.86 234.683 3199.33 254.85C3190.16 274.65 3185.58 304.533 3185.58 344.5C3185.58 384.467 3190.35 414.717 3199.88 435.25C3209.41 455.783 3225.91 466.05 3249.38 466.05ZM3561 498.5C3530.2 498.5 3507.1 489.883 3491.7 472.65C3476.67 455.05 3469.15 427.55 3469.15 390.15V263.65C3469.15 253.017 3467.5 244.95 3464.2 239.45C3461.27 233.95 3456.87 230.283 3451 228.45C3445.5 226.25 3438.35 225.15 3429.55 225.15H3427.9V198.2H3542.3V378.6C3542.3 394.367 3543.59 408.117 3546.15 419.85C3549.09 431.217 3553.85 440.017 3560.45 446.25C3567.42 452.483 3576.95 455.6 3589.05 455.6C3602.25 455.6 3613.07 452.117 3621.5 445.15C3629.94 437.817 3635.99 427.917 3639.65 415.45C3643.69 402.617 3645.7 387.583 3645.7 370.35V262C3645.7 251 3644.05 242.933 3640.75 237.8C3637.45 232.667 3632.87 229.367 3627 227.9C3621.14 226.067 3614.35 225.15 3606.65 225.15H3604.45V198.2H3718.85V430.3C3718.85 440.933 3720.5 448.817 3723.8 453.95C3727.47 459.083 3732.24 462.383 3738.1 463.85C3743.97 465.317 3750.75 466.05 3758.45 466.05H3761.75V493H3659.45L3649 452.3H3646.25C3636.35 469.533 3624.25 481.633 3609.95 488.6C3595.65 495.2 3579.34 498.5 3561 498.5ZM3898.28 498.5C3875.18 498.5 3856.11 496.117 3841.08 491.35C3826.04 486.217 3814.68 479.067 3806.98 469.9C3799.64 460.733 3795.98 449.917 3795.98 437.45C3795.98 427.183 3798.18 419.117 3802.58 413.25C3807.34 407.383 3813.03 403.35 3819.63 401.15C3826.23 398.583 3832.83 397.3 3839.43 397.3C3839.43 418.933 3844.38 435.983 3854.28 448.45C3864.18 460.917 3879.76 467.15 3901.03 467.15C3919.73 467.15 3933.66 463.117 3942.83 455.05C3951.99 446.983 3956.58 436.9 3956.58 424.8C3956.58 416.367 3954.38 409.4 3949.98 403.9C3945.94 398.4 3938.98 393.083 3929.08 387.95C3919.54 382.817 3906.34 377.133 3889.48 370.9C3869.31 363.2 3852.63 355.317 3839.43 347.25C3826.23 339.183 3816.33 329.65 3809.73 318.65C3803.13 307.283 3799.83 293.167 3799.83 276.3C3799.83 248.433 3810.09 227.533 3830.63 213.6C3851.53 199.3 3879.03 192.15 3913.13 192.15C3933.66 192.15 3950.53 194.717 3963.73 199.85C3976.93 204.617 3986.64 210.85 3992.88 218.55C3999.48 226.25 4002.78 234.683 4002.78 243.85C4002.78 254.85 3998.74 263.65 3990.68 270.25C3982.98 276.483 3971.06 279.6 3954.93 279.6C3954.93 261.267 3950.53 247.15 3941.73 237.25C3933.29 227.35 3921.19 222.4 3905.43 222.4C3889.66 222.4 3877.74 225.883 3869.68 232.85C3861.98 239.45 3858.13 248.433 3858.13 259.8C3858.13 272.267 3863.08 281.983 3872.98 288.95C3882.88 295.917 3900.29 303.983 3925.23 313.15C3945.03 320.117 3961.53 327.633 3974.73 335.7C3987.93 343.767 3997.83 353.3 4004.43 364.3C4011.03 375.3 4014.33 389.417 4014.33 406.65C4014.33 435.617 4004.06 458.167 3983.53 474.3C3962.99 490.433 3934.58 498.5 3898.28 498.5ZM4194.44 493V466.05H4209.84C4217.17 466.05 4223.59 464.95 4229.09 462.75C4234.59 460.55 4238.8 456.883 4241.74 451.75C4244.67 446.25 4246.14 438.917 4246.14 429.75V161.9C4246.14 152 4244.3 144.667 4240.64 139.9C4237.34 135.133 4232.94 131.833 4227.44 130C4221.94 128.167 4215.89 127.25 4209.29 127.25H4194.44V100.3H4355.04C4405.64 100.3 4443.77 108 4469.44 123.4C4495.1 138.8 4507.94 163.55 4507.94 197.65C4507.94 214.15 4504.64 228.267 4498.04 240C4491.44 251.367 4482.45 260.717 4471.09 268.05C4460.09 275.017 4447.8 280.517 4434.24 284.55V286.75C4460.64 291.517 4482.09 301.967 4498.59 318.1C4515.45 333.867 4523.89 356.417 4523.89 385.75C4523.89 421.683 4511.24 448.633 4485.94 466.6C4461 484.2 4422.87 493 4371.54 493H4194.44ZM4366.59 461.65C4392.99 461.65 4412.24 455.783 4424.34 444.05C4436.8 432.317 4443.04 412.333 4443.04 384.1C4443.04 365.767 4440.47 350.733 4435.34 339C4430.57 326.9 4422.69 317.917 4411.69 312.05C4400.69 306.183 4386.02 303.25 4367.69 303.25H4322.59V461.65H4366.59ZM4351.74 271.9C4370.44 271.9 4385.29 269.517 4396.29 264.75C4407.29 259.617 4415.17 251.733 4419.94 241.1C4425.07 230.467 4427.64 216.717 4427.64 199.85C4427.64 173.817 4421.59 156.033 4409.49 146.5C4397.39 136.6 4377.77 131.65 4350.64 131.65H4322.59V271.9H4351.74ZM4715.68 498.5C4670.94 498.5 4636.84 485.3 4613.38 458.9C4589.91 432.5 4578.18 395.283 4578.18 347.25C4578.18 295.917 4589.54 257.233 4612.28 231.2C4635.38 204.8 4667.83 191.6 4709.63 191.6C4748.13 191.6 4778.38 202.783 4800.38 225.15C4822.38 247.15 4833.38 279.967 4833.38 323.6V351.1H4652.43C4653.16 388.867 4660.13 416.367 4673.33 433.6C4686.53 450.833 4705.78 459.45 4731.08 459.45C4749.78 459.45 4765.36 455.233 4777.83 446.8C4790.66 438 4800.19 427.733 4806.43 416C4810.46 417.467 4813.94 420.217 4816.88 424.25C4820.18 427.917 4821.83 432.683 4821.83 438.55C4821.83 447.35 4818.16 456.333 4810.83 465.5C4803.49 474.667 4791.94 482.55 4776.18 489.15C4760.78 495.383 4740.61 498.5 4715.68 498.5ZM4759.13 317.55C4759.13 288.95 4755.28 266.4 4747.58 249.9C4740.24 233.4 4727.78 225.15 4710.18 225.15C4692.94 225.15 4679.38 233.033 4669.48 248.8C4659.94 264.567 4654.63 287.483 4653.53 317.55H4759.13ZM4874.95 493V466.05H4890.9C4897.87 466.05 4903.92 464.95 4909.05 462.75C4914.55 460.55 4918.77 456.883 4921.7 451.75C4925 446.25 4926.65 439.1 4926.65 430.3V161.9C4926.65 152.367 4925 145.217 4921.7 140.45C4918.4 135.317 4913.82 131.833 4907.95 130C4902.45 128.167 4896.22 127.25 4889.25 127.25H4874.95V100.3H5052.6C5092.2 100.3 5126.12 107.633 5154.35 122.3C5182.59 136.6 5204.22 158.05 5219.25 186.65C5234.29 214.883 5241.8 249.9 5241.8 291.7C5241.8 331.667 5234.65 366.867 5220.35 397.3C5206.05 427.367 5184.97 450.833 5157.1 467.7C5129.24 484.567 5094.4 493 5052.6 493H4874.95ZM5039.4 461.1C5066.17 461.1 5088.35 454.317 5105.95 440.75C5123.55 427.183 5136.75 407.933 5145.55 383C5154.72 357.7 5159.3 327.267 5159.3 291.7C5159.3 256.133 5154.72 226.617 5145.55 203.15C5136.75 179.683 5123.55 161.9 5105.95 149.8C5088.35 137.7 5066.35 131.65 5039.95 131.65H5003.1V461.1H5039.4ZM5283 493V466.05H5286.85C5294.55 466.05 5301.52 465.133 5307.75 463.3C5314.35 461.467 5319.49 457.8 5323.15 452.3C5327.19 446.8 5329.2 438.55 5329.2 427.55V137.15C5329.2 126.883 5327 119.367 5322.6 114.6C5318.2 109.467 5312.89 106.167 5306.65 104.7C5300.42 102.867 5294.19 101.95 5287.95 101.95H5281.9V75H5401.8V178.4C5401.8 186.467 5401.62 194.533 5401.25 202.6C5401.25 210.667 5401.07 218 5400.7 224.6C5400.34 230.833 5399.97 235.233 5399.6 237.8H5402.9C5408.04 228.267 5414.27 220.017 5421.6 213.05C5428.94 206.083 5437.74 200.767 5448 197.1C5458.64 193.433 5470.74 191.6 5484.3 191.6C5515.47 191.6 5538.94 200.033 5554.7 216.9C5570.47 233.767 5578.35 260.9 5578.35 298.3V426.45C5578.35 437.817 5579.82 446.433 5582.75 452.3C5586.05 457.8 5590.45 461.467 5595.95 463.3C5601.82 465.133 5608.79 466.05 5616.85 466.05H5619.05V493H5505.2V309.3C5505.2 285.467 5501.54 267.133 5494.2 254.3C5487.24 241.1 5474.59 234.5 5456.25 234.5C5443.05 234.5 5432.42 238.35 5424.35 246.05C5416.65 253.75 5410.97 264.2 5407.3 277.4C5404 290.6 5402.35 305.083 5402.35 320.85V429.75C5402.35 440.017 5404 447.717 5407.3 452.85C5410.97 457.983 5415.74 461.467 5421.6 463.3C5427.84 465.133 5434.99 466.05 5443.05 466.05H5445.25V493H5283ZM5647.23 493V466.05H5649.43C5657.86 466.05 5665.19 465.133 5671.43 463.3C5678.03 461.467 5683.16 457.8 5686.83 452.3C5690.49 446.433 5692.33 437.817 5692.33 426.45V262.55C5692.33 251.55 5690.49 243.483 5686.83 238.35C5683.53 232.85 5678.76 229.367 5672.53 227.9C5666.29 226.067 5659.14 225.15 5651.08 225.15H5649.43V198.2H5750.63L5761.63 251.55H5764.38C5769.51 239.083 5775.38 228.45 5781.98 219.65C5788.58 210.483 5796.64 203.7 5806.18 199.3C5816.08 194.533 5828.73 192.15 5844.13 192.15C5864.66 192.15 5879.69 196.367 5889.23 204.8C5899.13 212.867 5904.08 223.867 5904.08 237.8C5904.08 252.467 5898.76 263.833 5888.13 271.9C5877.49 279.967 5861.73 284 5840.83 284C5840.83 268.967 5838.99 257.783 5835.33 250.45C5831.66 242.75 5824.51 238.9 5813.88 238.9C5805.08 238.9 5797.56 242.383 5791.33 249.35C5785.09 255.95 5780.14 264.75 5776.48 275.75C5772.81 286.383 5770.06 297.75 5768.23 309.85C5766.39 321.95 5765.48 333.317 5765.48 343.95V429.2C5765.48 439.833 5767.13 447.9 5770.43 453.4C5774.09 458.533 5779.04 462.017 5785.28 463.85C5791.51 465.317 5798.29 466.05 5805.63 466.05H5822.68V493H5647.23ZM6059.1 498.5C6028.3 498.5 6005.2 489.883 5989.8 472.65C5974.77 455.05 5967.25 427.55 5967.25 390.15V263.65C5967.25 253.017 5965.6 244.95 5962.3 239.45C5959.37 233.95 5954.97 230.283 5949.1 228.45C5943.6 226.25 5936.45 225.15 5927.65 225.15H5926V198.2H6040.4V378.6C6040.4 394.367 6041.68 408.117 6044.25 419.85C6047.18 431.217 6051.95 440.017 6058.55 446.25C6065.52 452.483 6075.05 455.6 6087.15 455.6C6100.35 455.6 6111.17 452.117 6119.6 445.15C6128.03 437.817 6134.08 427.917 6137.75 415.45C6141.78 402.617 6143.8 387.583 6143.8 370.35V262C6143.8 251 6142.15 242.933 6138.85 237.8C6135.55 232.667 6130.97 229.367 6125.1 227.9C6119.23 226.067 6112.45 225.15 6104.75 225.15H6102.55V198.2H6216.95V430.3C6216.95 440.933 6218.6 448.817 6221.9 453.95C6225.57 459.083 6230.33 462.383 6236.2 463.85C6242.07 465.317 6248.85 466.05 6256.55 466.05H6259.85V493H6157.55L6147.1 452.3H6144.35C6134.45 469.533 6122.35 481.633 6108.05 488.6C6093.75 495.2 6077.43 498.5 6059.1 498.5ZM6317.72 252.65C6315.16 245.317 6312.04 239.817 6308.37 236.15C6305.07 232.117 6300.86 229.367 6295.72 227.9C6290.96 226.067 6284.54 225.15 6276.47 225.15V198.2H6433.77V225.15H6422.22C6412.32 225.15 6404.99 226.983 6400.22 230.65C6395.82 234.317 6393.62 240 6393.62 247.7C6393.62 251 6393.99 254.483 6394.72 258.15C6395.46 261.45 6396.56 264.933 6398.02 268.6L6434.32 372.55C6437.62 380.617 6440.56 389.05 6443.12 397.85C6445.69 406.283 6448.07 414.35 6450.27 422.05C6452.47 429.75 6454.31 436.717 6455.77 442.95C6457.61 435.617 6460.54 426.267 6464.57 414.9C6468.97 403.167 6473.01 392.35 6476.67 382.45L6514.62 273C6516.46 268.233 6517.74 263.833 6518.47 259.8C6519.21 255.4 6519.57 251.367 6519.57 247.7C6519.57 240.367 6517.01 234.867 6511.87 231.2C6507.11 227.167 6499.41 225.15 6488.77 225.15H6481.62V198.2H6601.52V225.15H6592.17C6585.94 225.15 6580.81 226.25 6576.77 228.45C6572.74 230.65 6568.89 234.867 6565.22 241.1C6561.92 246.967 6558.26 255.4 6554.22 266.4L6472.27 493H6405.17L6317.72 252.65ZM6612.35 493V466.05H6618.95C6626.65 466.05 6633.61 465.133 6639.85 463.3C6646.08 461.1 6651.03 457.25 6654.7 451.75C6658.36 446.25 6660.2 438.183 6660.2 427.55V262.55C6660.2 251.917 6658.18 244.033 6654.15 238.9C6650.48 233.767 6645.53 230.283 6639.3 228.45C6633.43 226.25 6626.65 225.15 6618.95 225.15H6614V198.2H6733.35V426.45C6733.35 437.45 6735 445.883 6738.3 451.75C6741.96 457.25 6746.91 461.1 6753.15 463.3C6759.75 465.133 6766.71 466.05 6774.05 466.05H6780.65V493H6612.35ZM6694.3 147.05C6682.56 147.05 6672.66 144.117 6664.6 138.25C6656.53 132.017 6652.5 122.3 6652.5 109.1C6652.5 95.5333 6656.53 85.8167 6664.6 79.95C6672.66 74.0833 6682.56 71.15 6694.3 71.15C6705.66 71.15 6715.38 74.0833 6723.45 79.95C6731.88 85.8167 6736.1 95.5333 6736.1 109.1C6736.1 122.3 6731.88 132.017 6723.45 138.25C6715.38 144.117 6705.66 147.05 6694.3 147.05ZM6949.94 498.5C6923.9 498.5 6900.8 493.55 6880.64 483.65C6860.84 473.75 6845.25 457.8 6833.89 435.8C6822.89 413.433 6817.39 383.733 6817.39 346.7C6817.39 307.1 6823.07 276.117 6834.44 253.75C6846.17 231.017 6861.75 215.067 6881.19 205.9C6900.99 196.367 6923.17 191.6 6947.74 191.6C6969 191.6 6987.34 193.983 7002.74 198.75C7018.5 203.517 7030.6 210.117 7039.04 218.55C7047.84 226.983 7052.24 237.067 7052.24 248.8C7052.24 256.867 7050.4 264.2 7046.74 270.8C7043.07 277.4 7036.47 282.533 7026.94 286.2C7017.77 289.867 7004.94 291.7 6988.44 291.7C6988.44 279.233 6987.34 267.867 6985.14 257.6C6982.94 246.967 6978.9 238.533 6973.04 232.3C6967.54 226.067 6959.65 222.95 6949.39 222.95C6937.65 222.95 6927.39 226.617 6918.59 233.95C6910.15 241.283 6903.55 253.933 6898.79 271.9C6894.02 289.5 6891.64 314.25 6891.64 346.15C6891.64 371.45 6894.02 392.533 6898.79 409.4C6903.55 425.9 6911.07 438.367 6921.34 446.8C6931.97 454.867 6945.72 458.9 6962.59 458.9C6981.29 458.9 6997.24 454.867 7010.44 446.8C7024 438.733 7033.9 428.65 7040.14 416.55C7044.17 419.117 7047.1 422.6 7048.94 427C7051.14 431.033 7052.24 435.617 7052.24 440.75C7052.24 449.55 7048.57 458.533 7041.24 467.7C7033.9 476.5 7022.72 483.833 7007.69 489.7C6992.65 495.567 6973.4 498.5 6949.94 498.5ZM7083.39 493V466.05H7089.99C7097.69 466.05 7104.66 465.133 7110.89 463.3C7117.13 461.1 7122.08 457.25 7125.74 451.75C7129.41 446.25 7131.24 438.183 7131.24 427.55V262.55C7131.24 251.917 7129.23 244.033 7125.19 238.9C7121.53 233.767 7116.58 230.283 7110.34 228.45C7104.48 226.25 7097.69 225.15 7089.99 225.15H7085.04V198.2H7204.39V426.45C7204.39 437.45 7206.04 445.883 7209.34 451.75C7213.01 457.25 7217.96 461.1 7224.19 463.3C7230.79 465.133 7237.76 466.05 7245.09 466.05H7251.69V493H7083.39ZM7165.34 147.05C7153.61 147.05 7143.71 144.117 7135.64 138.25C7127.58 132.017 7123.54 122.3 7123.54 109.1C7123.54 95.5333 7127.58 85.8167 7135.64 79.95C7143.71 74.0833 7153.61 71.15 7165.34 71.15C7176.71 71.15 7186.43 74.0833 7194.49 79.95C7202.93 85.8167 7207.14 95.5333 7207.14 109.1C7207.14 122.3 7202.93 132.017 7194.49 138.25C7186.43 144.117 7176.71 147.05 7165.34 147.05ZM7425.38 498.5C7382.85 498.5 7349.3 485.85 7324.73 460.55C7300.53 434.883 7288.43 396.2 7288.43 344.5C7288.43 293.167 7299.98 254.85 7323.08 229.55C7346.55 204.25 7381.2 191.6 7427.03 191.6C7469.56 191.6 7502.93 204.25 7527.13 229.55C7551.7 254.85 7563.98 293.167 7563.98 344.5C7563.98 396.2 7552.25 434.883 7528.78 460.55C7505.31 485.85 7470.85 498.5 7425.38 498.5ZM7426.48 466.05C7441.88 466.05 7454.16 461.467 7463.33 452.3C7472.86 443.133 7479.65 429.567 7483.68 411.6C7487.71 393.267 7489.73 370.9 7489.73 344.5C7489.73 304.533 7484.78 274.65 7474.88 254.85C7465.35 234.683 7449.03 224.6 7425.93 224.6C7402.46 224.6 7385.96 234.683 7376.43 254.85C7367.26 274.65 7362.68 304.533 7362.68 344.5C7362.68 384.467 7367.45 414.717 7376.98 435.25C7386.51 455.783 7403.01 466.05 7426.48 466.05ZM7738.1 498.5C7707.3 498.5 7684.2 489.883 7668.8 472.65C7653.77 455.05 7646.25 427.55 7646.25 390.15V263.65C7646.25 253.017 7644.6 244.95 7641.3 239.45C7638.37 233.95 7633.97 230.283 7628.1 228.45C7622.6 226.25 7615.45 225.15 7606.65 225.15H7605V198.2H7719.4V378.6C7719.4 394.367 7720.69 408.117 7723.25 419.85C7726.19 431.217 7730.95 440.017 7737.55 446.25C7744.52 452.483 7754.05 455.6 7766.15 455.6C7779.35 455.6 7790.17 452.117 7798.6 445.15C7807.04 437.817 7813.09 427.917 7816.75 415.45C7820.79 402.617 7822.8 387.583 7822.8 370.35V262C7822.8 251 7821.15 242.933 7817.85 237.8C7814.55 232.667 7809.97 229.367 7804.1 227.9C7798.24 226.067 7791.45 225.15 7783.75 225.15H7781.55V198.2H7895.95V430.3C7895.95 440.933 7897.6 448.817 7900.9 453.95C7904.57 459.083 7909.34 462.383 7915.2 463.85C7921.07 465.317 7927.85 466.05 7935.55 466.05H7938.85V493H7836.55L7826.1 452.3H7823.35C7813.45 469.533 7801.35 481.633 7787.05 488.6C7772.75 495.2 7756.44 498.5 7738.1 498.5ZM8075.38 498.5C8052.28 498.5 8033.21 496.117 8018.18 491.35C8003.14 486.217 7991.78 479.067 7984.08 469.9C7976.74 460.733 7973.08 449.917 7973.08 437.45C7973.08 427.183 7975.28 419.117 7979.68 413.25C7984.44 407.383 7990.13 403.35 7996.73 401.15C8003.33 398.583 8009.93 397.3 8016.53 397.3C8016.53 418.933 8021.48 435.983 8031.38 448.45C8041.28 460.917 8056.86 467.15 8078.13 467.15C8096.83 467.15 8110.76 463.117 8119.93 455.05C8129.09 446.983 8133.68 436.9 8133.68 424.8C8133.68 416.367 8131.48 409.4 8127.08 403.9C8123.04 398.4 8116.08 393.083 8106.18 387.95C8096.64 382.817 8083.44 377.133 8066.58 370.9C8046.41 363.2 8029.73 355.317 8016.53 347.25C8003.33 339.183 7993.43 329.65 7986.83 318.65C7980.23 307.283 7976.93 293.167 7976.93 276.3C7976.93 248.433 7987.19 227.533 8007.73 213.6C8028.63 199.3 8056.13 192.15 8090.23 192.15C8110.76 192.15 8127.63 194.717 8140.83 199.85C8154.03 204.617 8163.74 210.85 8169.98 218.55C8176.58 226.25 8179.88 234.683 8179.88 243.85C8179.88 254.85 8175.84 263.65 8167.78 270.25C8160.08 276.483 8148.16 279.6 8132.03 279.6C8132.03 261.267 8127.63 247.15 8118.83 237.25C8110.39 227.35 8098.29 222.4 8082.53 222.4C8066.76 222.4 8054.84 225.883 8046.78 232.85C8039.08 239.45 8035.23 248.433 8035.23 259.8C8035.23 272.267 8040.18 281.983 8050.08 288.95C8059.98 295.917 8077.39 303.983 8102.33 313.15C8122.13 320.117 8138.63 327.633 8151.83 335.7C8165.03 343.767 8174.93 353.3 8181.53 364.3C8188.13 375.3 8191.43 389.417 8191.43 406.65C8191.43 435.617 8181.16 458.167 8160.63 474.3C8140.09 490.433 8111.68 498.5 8075.38 498.5ZM8371.54 493V466.05H8386.94C8394.27 466.05 8400.69 464.95 8406.19 462.75C8411.69 460.55 8415.9 456.883 8418.84 451.75C8421.77 446.25 8423.24 438.917 8423.24 429.75V161.9C8423.24 152 8421.4 144.667 8417.74 139.9C8414.44 135.133 8410.04 131.833 8404.54 130C8399.04 128.167 8392.99 127.25 8386.39 127.25H8371.54V100.3H8532.14C8582.74 100.3 8620.87 108 8646.54 123.4C8672.2 138.8 8685.04 163.55 8685.04 197.65C8685.04 214.15 8681.74 228.267 8675.14 240C8668.54 251.367 8659.55 260.717 8648.19 268.05C8637.19 275.017 8624.9 280.517 8611.34 284.55V286.75C8637.74 291.517 8659.19 301.967 8675.69 318.1C8692.55 333.867 8700.99 356.417 8700.99 385.75C8700.99 421.683 8688.34 448.633 8663.04 466.6C8638.1 484.2 8599.97 493 8548.64 493H8371.54ZM8543.69 461.65C8570.09 461.65 8589.34 455.783 8601.44 444.05C8613.9 432.317 8620.14 412.333 8620.14 384.1C8620.14 365.767 8617.57 350.733 8612.44 339C8607.67 326.9 8599.79 317.917 8588.79 312.05C8577.79 306.183 8563.12 303.25 8544.79 303.25H8499.69V461.65H8543.69ZM8528.84 271.9C8547.54 271.9 8562.39 269.517 8573.39 264.75C8584.39 259.617 8592.27 251.733 8597.04 241.1C8602.17 230.467 8604.74 216.717 8604.74 199.85C8604.74 173.817 8598.69 156.033 8586.59 146.5C8574.49 136.6 8554.87 131.65 8527.74 131.65H8499.69V271.9H8528.84ZM8892.78 498.5C8848.04 498.5 8813.94 485.3 8790.48 458.9C8767.01 432.5 8755.28 395.283 8755.28 347.25C8755.28 295.917 8766.64 257.233 8789.38 231.2C8812.48 204.8 8844.93 191.6 8886.73 191.6C8925.23 191.6 8955.48 202.783 8977.48 225.15C8999.48 247.15 9010.48 279.967 9010.48 323.6V351.1H8829.53C8830.26 388.867 8837.23 416.367 8850.43 433.6C8863.63 450.833 8882.88 459.45 8908.18 459.45C8926.88 459.45 8942.46 455.233 8954.93 446.8C8967.76 438 8977.29 427.733 8983.53 416C8987.56 417.467 8991.04 420.217 8993.98 424.25C8997.28 427.917 8998.93 432.683 8998.93 438.55C8998.93 447.35 8995.26 456.333 8987.93 465.5C8980.59 474.667 8969.04 482.55 8953.28 489.15C8937.88 495.383 8917.71 498.5 8892.78 498.5ZM8936.23 317.55C8936.23 288.95 8932.38 266.4 8924.68 249.9C8917.34 233.4 8904.88 225.15 8887.28 225.15C8870.04 225.15 8856.48 233.033 8846.58 248.8C8837.04 264.567 8831.73 287.483 8830.63 317.55H8936.23ZM9052.05 493V466.05H9068C9074.97 466.05 9081.02 464.95 9086.15 462.75C9091.65 460.55 9095.87 456.883 9098.8 451.75C9102.1 446.25 9103.75 439.1 9103.75 430.3V161.9C9103.75 152.367 9102.1 145.217 9098.8 140.45C9095.5 135.317 9090.92 131.833 9085.05 130C9079.55 128.167 9073.32 127.25 9066.35 127.25H9052.05V100.3H9229.7C9269.3 100.3 9303.22 107.633 9331.45 122.3C9359.69 136.6 9381.32 158.05 9396.35 186.65C9411.39 214.883 9418.9 249.9 9418.9 291.7C9418.9 331.667 9411.75 366.867 9397.45 397.3C9383.15 427.367 9362.07 450.833 9334.2 467.7C9306.34 484.567 9271.5 493 9229.7 493H9052.05ZM9216.5 461.1C9243.27 461.1 9265.45 454.317 9283.05 440.75C9300.65 427.183 9313.85 407.933 9322.65 383C9331.82 357.7 9336.4 327.267 9336.4 291.7C9336.4 256.133 9331.82 226.617 9322.65 203.15C9313.85 179.683 9300.65 161.9 9283.05 149.8C9265.45 137.7 9243.45 131.65 9217.05 131.65H9180.2V461.1H9216.5ZM9460.1 493V466.05H9463.95C9471.65 466.05 9478.62 465.133 9484.85 463.3C9491.45 461.467 9496.58 457.8 9500.25 452.3C9504.28 446.8 9506.3 438.55 9506.3 427.55V137.15C9506.3 126.883 9504.1 119.367 9499.7 114.6C9495.3 109.467 9489.98 106.167 9483.75 104.7C9477.52 102.867 9471.28 101.95 9465.05 101.95H9459V75H9578.9V178.4C9578.9 186.467 9578.72 194.533 9578.35 202.6C9578.35 210.667 9578.17 218 9577.8 224.6C9577.43 230.833 9577.07 235.233 9576.7 237.8H9580C9585.13 228.267 9591.37 220.017 9598.7 213.05C9606.03 206.083 9614.83 200.767 9625.1 197.1C9635.73 193.433 9647.83 191.6 9661.4 191.6C9692.57 191.6 9716.03 200.033 9731.8 216.9C9747.57 233.767 9755.45 260.9 9755.45 298.3V426.45C9755.45 437.817 9756.92 446.433 9759.85 452.3C9763.15 457.8 9767.55 461.467 9773.05 463.3C9778.92 465.133 9785.88 466.05 9793.95 466.05H9796.15V493H9682.3V309.3C9682.3 285.467 9678.63 267.133 9671.3 254.3C9664.33 241.1 9651.68 234.5 9633.35 234.5C9620.15 234.5 9609.52 238.35 9601.45 246.05C9593.75 253.75 9588.07 264.2 9584.4 277.4C9581.1 290.6 9579.45 305.083 9579.45 320.85V429.75C9579.45 440.017 9581.1 447.717 9584.4 452.85C9588.07 457.983 9592.83 461.467 9598.7 463.3C9604.93 465.133 9612.08 466.05 9620.15 466.05H9622.35V493H9460.1ZM9824.33 493V466.05H9826.53C9834.96 466.05 9842.29 465.133 9848.53 463.3C9855.13 461.467 9860.26 457.8 9863.93 452.3C9867.59 446.433 9869.43 437.817 9869.43 426.45V262.55C9869.43 251.55 9867.59 243.483 9863.93 238.35C9860.63 232.85 9855.86 229.367 9849.63 227.9C9843.39 226.067 9836.24 225.15 9828.18 225.15H9826.53V198.2H9927.73L9938.73 251.55H9941.48C9946.61 239.083 9952.48 228.45 9959.08 219.65C9965.68 210.483 9973.74 203.7 9983.28 199.3C9993.18 194.533 10005.8 192.15 10021.2 192.15C10041.8 192.15 10056.8 196.367 10066.3 204.8C10076.2 212.867 10081.2 223.867 10081.2 237.8C10081.2 252.467 10075.9 263.833 10065.2 271.9C10054.6 279.967 10038.8 284 10017.9 284C10017.9 268.967 10016.1 257.783 10012.4 250.45C10008.8 242.75 10001.6 238.9 9990.98 238.9C9982.18 238.9 9974.66 242.383 9968.43 249.35C9962.19 255.95 9957.24 264.75 9953.58 275.75C9949.91 286.383 9947.16 297.75 9945.33 309.85C9943.49 321.95 9942.58 333.317 9942.58 343.95V429.2C9942.58 439.833 9944.23 447.9 9947.53 453.4C9951.19 458.533 9956.14 462.017 9962.38 463.85C9968.61 465.317 9975.39 466.05 9982.73 466.05H9999.78V493H9824.33ZM10236.2 498.5C10205.4 498.5 10182.3 489.883 10166.9 472.65C10151.9 455.05 10144.3 427.55 10144.3 390.15V263.65C10144.3 253.017 10142.7 244.95 10139.4 239.45C10136.5 233.95 10132.1 230.283 10126.2 228.45C10120.7 226.25 10113.5 225.15 10104.7 225.15H10103.1V198.2H10217.5V378.6C10217.5 394.367 10218.8 408.117 10221.3 419.85C10224.3 431.217 10229 440.017 10235.6 446.25C10242.6 452.483 10252.1 455.6 10264.2 455.6C10277.4 455.6 10288.3 452.117 10296.7 445.15C10305.1 437.817 10311.2 427.917 10314.8 415.45C10318.9 402.617 10320.9 387.583 10320.9 370.35V262C10320.9 251 10319.2 242.933 10315.9 237.8C10312.6 232.667 10308.1 229.367 10302.2 227.9C10296.3 226.067 10289.5 225.15 10281.8 225.15H10279.6V198.2H10394V430.3C10394 440.933 10395.7 448.817 10399 453.95C10402.7 459.083 10407.4 462.383 10413.3 463.85C10419.2 465.317 10425.9 466.05 10433.6 466.05H10436.9V493H10334.6L10324.2 452.3H10321.4C10311.5 469.533 10299.4 481.633 10285.1 488.6C10270.8 495.2 10254.5 498.5 10236.2 498.5ZM10494.8 252.65C10492.3 245.317 10489.1 239.817 10485.5 236.15C10482.2 232.117 10478 229.367 10472.8 227.9C10468.1 226.067 10461.6 225.15 10453.6 225.15V198.2H10610.9V225.15H10599.3C10589.4 225.15 10582.1 226.983 10577.3 230.65C10572.9 234.317 10570.7 240 10570.7 247.7C10570.7 251 10571.1 254.483 10571.8 258.15C10572.6 261.45 10573.7 264.933 10575.1 268.6L10611.4 372.55C10614.7 380.617 10617.7 389.05 10620.2 397.85C10622.8 406.283 10625.2 414.35 10627.4 422.05C10629.6 429.75 10631.4 436.717 10632.9 442.95C10634.7 435.617 10637.6 426.267 10641.7 414.9C10646.1 403.167 10650.1 392.35 10653.8 382.45L10691.7 273C10693.6 268.233 10694.8 263.833 10695.6 259.8C10696.3 255.4 10696.7 251.367 10696.7 247.7C10696.7 240.367 10694.1 234.867 10689 231.2C10684.2 227.167 10676.5 225.15 10665.9 225.15H10658.7V198.2H10778.6V225.15H10769.3C10763 225.15 10757.9 226.25 10753.9 228.45C10749.8 230.65 10746 234.867 10742.3 241.1C10739 246.967 10735.4 255.4 10731.3 266.4L10649.4 493H10582.3L10494.8 252.65ZM10789.4 493V466.05H10796C10803.7 466.05 10810.7 465.133 10816.9 463.3C10823.2 461.1 10828.1 457.25 10831.8 451.75C10835.5 446.25 10837.3 438.183 10837.3 427.55V262.55C10837.3 251.917 10835.3 244.033 10831.2 238.9C10827.6 233.767 10822.6 230.283 10816.4 228.45C10810.5 226.25 10803.7 225.15 10796 225.15H10791.1V198.2H10910.4V426.45C10910.4 437.45 10912.1 445.883 10915.4 451.75C10919.1 457.25 10924 461.1 10930.2 463.3C10936.8 465.133 10943.8 466.05 10951.1 466.05H10957.7V493H10789.4ZM10871.4 147.05C10859.7 147.05 10849.8 144.117 10841.7 138.25C10833.6 132.017 10829.6 122.3 10829.6 109.1C10829.6 95.5333 10833.6 85.8167 10841.7 79.95C10849.8 74.0833 10859.7 71.15 10871.4 71.15C10882.8 71.15 10892.5 74.0833 10900.5 79.95C10909 85.8167 10913.2 95.5333 10913.2 109.1C10913.2 122.3 10909 132.017 10900.5 138.25C10892.5 144.117 10882.8 147.05 10871.4 147.05ZM11127 498.5C11101 498.5 11077.9 493.55 11057.7 483.65C11037.9 473.75 11022.4 457.8 11011 435.8C11000 413.433 10994.5 383.733 10994.5 346.7C10994.5 307.1 11000.2 276.117 11011.5 253.75C11023.3 231.017 11038.9 215.067 11058.3 205.9C11078.1 196.367 11100.3 191.6 11124.8 191.6C11146.1 191.6 11164.4 193.983 11179.8 198.75C11195.6 203.517 11207.7 210.117 11216.1 218.55C11224.9 226.983 11229.3 237.067 11229.3 248.8C11229.3 256.867 11227.5 264.2 11223.8 270.8C11220.2 277.4 11213.6 282.533 11204 286.2C11194.9 289.867 11182 291.7 11165.5 291.7C11165.5 279.233 11164.4 267.867 11162.2 257.6C11160 246.967 11156 238.533 11150.1 232.3C11144.6 226.067 11136.8 222.95 11126.5 222.95C11114.8 222.95 11104.5 226.617 11095.7 233.95C11087.3 241.283 11080.7 253.933 11075.9 271.9C11071.1 289.5 11068.7 314.25 11068.7 346.15C11068.7 371.45 11071.1 392.533 11075.9 409.4C11080.7 425.9 11088.2 438.367 11098.4 446.8C11109.1 454.867 11122.8 458.9 11139.7 458.9C11158.4 458.9 11174.3 454.867 11187.5 446.8C11201.1 438.733 11211 428.65 11217.2 416.55C11221.3 419.117 11224.2 422.6 11226 427C11228.2 431.033 11229.3 435.617 11229.3 440.75C11229.3 449.55 11225.7 458.533 11218.3 467.7C11211 476.5 11199.8 483.833 11184.8 489.7C11169.8 495.567 11150.5 498.5 11127 498.5ZM11260.5 493V466.05H11267.1C11274.8 466.05 11281.8 465.133 11288 463.3C11294.2 461.1 11299.2 457.25 11302.8 451.75C11306.5 446.25 11308.3 438.183 11308.3 427.55V262.55C11308.3 251.917 11306.3 244.033 11302.3 238.9C11298.6 233.767 11293.7 230.283 11287.4 228.45C11281.6 226.25 11274.8 225.15 11267.1 225.15H11262.1V198.2H11381.5V426.45C11381.5 437.45 11383.1 445.883 11386.4 451.75C11390.1 457.25 11395.1 461.1 11401.3 463.3C11407.9 465.133 11414.9 466.05 11422.2 466.05H11428.8V493H11260.5ZM11342.4 147.05C11330.7 147.05 11320.8 144.117 11312.7 138.25C11304.7 132.017 11300.6 122.3 11300.6 109.1C11300.6 95.5333 11304.7 85.8167 11312.7 79.95C11320.8 74.0833 11330.7 71.15 11342.4 71.15C11353.8 71.15 11363.5 74.0833 11371.6 79.95C11380 85.8167 11384.2 95.5333 11384.2 109.1C11384.2 122.3 11380 132.017 11371.6 138.25C11363.5 144.117 11353.8 147.05 11342.4 147.05ZM11602.5 498.5C11559.9 498.5 11526.4 485.85 11501.8 460.55C11477.6 434.883 11465.5 396.2 11465.5 344.5C11465.5 293.167 11477.1 254.85 11500.2 229.55C11523.6 204.25 11558.3 191.6 11604.1 191.6C11646.7 191.6 11680 204.25 11704.2 229.55C11728.8 254.85 11741.1 293.167 11741.1 344.5C11741.1 396.2 11729.3 434.883 11705.9 460.55C11682.4 485.85 11647.9 498.5 11602.5 498.5ZM11603.6 466.05C11619 466.05 11631.3 461.467 11640.4 452.3C11650 443.133 11656.7 429.567 11660.8 411.6C11664.8 393.267 11666.8 370.9 11666.8 344.5C11666.8 304.533 11661.9 274.65 11652 254.85C11642.4 234.683 11626.1 224.6 11603 224.6C11579.6 224.6 11563.1 234.683 11553.5 254.85C11544.4 274.65 11539.8 304.533 11539.8 344.5C11539.8 384.467 11544.5 414.717 11554.1 435.25C11563.6 455.783 11580.1 466.05 11603.6 466.05ZM11915.2 498.5C11884.4 498.5 11861.3 489.883 11845.9 472.65C11830.9 455.05 11823.4 427.55 11823.4 390.15V263.65C11823.4 253.017 11821.7 244.95 11818.4 239.45C11815.5 233.95 11811.1 230.283 11805.2 228.45C11799.7 226.25 11792.6 225.15 11783.8 225.15H11782.1V198.2H11896.5V378.6C11896.5 394.367 11897.8 408.117 11900.4 419.85C11903.3 431.217 11908.1 440.017 11914.7 446.25C11921.6 452.483 11931.2 455.6 11943.3 455.6C11956.5 455.6 11967.3 452.117 11975.7 445.15C11984.1 437.817 11990.2 427.917 11993.9 415.45C11997.9 402.617 11999.9 387.583 11999.9 370.35V262C11999.9 251 11998.3 242.933 11995 237.8C11991.7 232.667 11987.1 229.367 11981.2 227.9C11975.3 226.067 11968.6 225.15 11960.9 225.15H11958.7V198.2H12073.1V430.3C12073.1 440.933 12074.7 448.817 12078 453.95C12081.7 459.083 12086.4 462.383 12092.3 463.85C12098.2 465.317 12105 466.05 12112.7 466.05H12116V493H12013.7L12003.2 452.3H12000.5C11990.6 469.533 11978.5 481.633 11964.2 488.6C11949.9 495.2 11933.5 498.5 11915.2 498.5ZM12252.5 498.5C12229.4 498.5 12210.3 496.117 12195.3 491.35C12180.2 486.217 12168.9 479.067 12161.2 469.9C12153.8 460.733 12150.2 449.917 12150.2 437.45C12150.2 427.183 12152.4 419.117 12156.8 413.25C12161.5 407.383 12167.2 403.35 12173.8 401.15C12180.4 398.583 12187 397.3 12193.6 397.3C12193.6 418.933 12198.6 435.983 12208.5 448.45C12218.4 460.917 12234 467.15 12255.2 467.15C12273.9 467.15 12287.9 463.117 12297 455.05C12306.2 446.983 12310.8 436.9 12310.8 424.8C12310.8 416.367 12308.6 409.4 12304.2 403.9C12300.1 398.4 12293.2 393.083 12283.3 387.95C12273.7 382.817 12260.5 377.133 12243.7 370.9C12223.5 363.2 12206.8 355.317 12193.6 347.25C12180.4 339.183 12170.5 329.65 12163.9 318.65C12157.3 307.283 12154 293.167 12154 276.3C12154 248.433 12164.3 227.533 12184.8 213.6C12205.7 199.3 12233.2 192.15 12267.3 192.15C12287.9 192.15 12304.7 194.717 12317.9 199.85C12331.1 204.617 12340.8 210.85 12347.1 218.55C12353.7 226.25 12357 234.683 12357 243.85C12357 254.85 12352.9 263.65 12344.9 270.25C12337.2 276.483 12325.3 279.6 12309.1 279.6C12309.1 261.267 12304.7 247.15 12295.9 237.25C12287.5 227.35 12275.4 222.4 12259.6 222.4C12243.9 222.4 12231.9 225.883 12223.9 232.85C12216.2 239.45 12212.3 248.433 12212.3 259.8C12212.3 272.267 12217.3 281.983 12227.2 288.95C12237.1 295.917 12254.5 303.983 12279.4 313.15C12299.2 320.117 12315.7 327.633 12328.9 335.7C12342.1 343.767 12352 353.3 12358.6 364.3C12365.2 375.3 12368.5 389.417 12368.5 406.65C12368.5 435.617 12358.3 458.167 12337.7 474.3C12317.2 490.433 12288.8 498.5 12252.5 498.5Z" fill="black"/>
</g>
<defs>
<clipPath id="clip0_21_130">
<rect width="12389" height="652" fill="white"/>
</clipPath>
</defs>
</svg>
